<!-- icon666.com - MILLIONS OF FREE VECTOR ICONS --><svg viewBox="-21 -47 682.66669 682" xmlns="http://www.w3.org/2000/svg"><path d="m532.859375 323.335938v43.734374c0 19.863282-16.160156 36.023438-36.023437 36.023438h-56.675782c-19.863281 0-36.023437-16.160156-36.023437-36.023438v-43.734374h-170.773438v43.734374c0 19.863282-16.160156 36.023438-36.023437 36.023438h-56.675782c-19.863281 0-36.023437-16.160156-36.023437-36.023438v-43.734374h-104.640625v218.171874c0 24.574219 19.984375 44.574219 44.5625 44.574219h550.875c24.578125 0 44.5625-20 44.5625-44.574219v-218.171874zm-37.5-54.875h-53.722656v97.132812h53.722656zm100.078125-155.976563h-550.875c-24.578125 0-44.5625 19.984375-44.5625 44.5625v128.789063h104.640625v-18.847657c0-19.863281 16.160156-36.027343 36.023437-36.027343h56.675782c19.863281 0 36.023437 16.164062 36.023437 36.027343v18.847657h170.773438v-18.847657c0-19.863281 16.160156-36.027343 36.023437-36.027343h56.675782c19.863281 0 36.023437 16.164062 36.023437 36.027343v18.847657h107.140625v-128.789063c0-24.578125-19.984375-44.5625-44.5625-44.5625zm-453.296875 155.976563v97.132812h53.722656v-97.132812zm0 0" fill="#000000" style="fill: rgb(255, 255, 255);"></path><path d="m198.902344 74.984375v-28.851563c0-5.542968 4.554687-10.050781 10.160156-10.050781h219.375c5.601562 0 10.160156 4.507813 10.160156 10.050781v28.851563h37.5v-28.851563c0-26.222656-21.378906-47.550781-47.660156-47.550781h-219.375c-26.28125 0-47.660156 21.335938-47.660156 47.550781v28.851563zm0 0" fill="#000000" style="fill: rgb(255, 255, 255);"></path></svg>